<svg width="131" height="87" viewBox="0 0 131 87" fill="none" xmlns="http://www.w3.org/2000/svg">
<path d="M7.948 60.576C6.11333 60.576 4.66267 60.128 3.596 59.232C2.572 58.336 1.82533 57.1627 1.356 55.712C0.929333 54.2613 0.737333 52.6827 0.78 50.976C0.822667 49.2267 1.01467 47.52 1.356 45.856C2.08133 42.272 3.212 39.328 4.748 37.024C6.284 34.6773 8.012 32.9493 9.932 31.84C11.8947 30.688 13.836 30.112 15.756 30.112C17.42 30.112 18.7427 30.4747 19.724 31.2C20.748 31.8827 21.4307 32.7787 21.772 33.888C22.1133 34.9547 22.156 36.064 21.9 37.216C21.6013 38.624 20.8973 39.9253 19.788 41.12C18.6787 42.272 17.356 43.2747 15.82 44.128C14.3267 44.9813 12.7693 45.664 11.148 46.176C9.52667 46.6453 8.03333 46.9227 6.668 47.008L6.86 44.64C9.24933 44.4693 11.3827 43.8293 13.26 42.72C15.1373 41.6107 16.2893 40.0533 16.716 38.048C16.972 36.7253 16.8653 35.616 16.396 34.72C15.9267 33.824 15.1587 33.376 14.092 33.376C12.7267 33.376 11.3827 34.2933 10.06 36.128C8.78 37.9627 7.82 40.7787 7.18 44.576C6.88133 46.3253 6.75333 48.096 6.796 49.888C6.83867 51.6373 7.20133 53.088 7.884 54.24C8.56667 55.392 9.71867 55.968 11.34 55.968C12.364 55.968 13.4307 55.6907 14.54 55.136C15.6493 54.5813 16.7373 53.664 17.804 52.384C18.1453 52.5973 18.4227 52.8533 18.636 53.152C18.8493 53.4507 19.02 53.8133 19.148 54.24C17.8253 56.032 16.2253 57.5467 14.348 58.784C12.4707 59.9787 10.3373 60.576 7.948 60.576ZM45.915 14.304C47.5363 14.304 48.9017 14.4747 50.011 14.816C51.163 15.1147 52.0163 15.4773 52.571 15.904C52.2723 16.544 51.995 17.248 51.739 18.016C51.5257 18.784 51.3337 19.5733 51.163 20.384C51.035 21.152 50.9497 21.9413 50.907 22.752C50.6937 22.88 50.4377 22.9867 50.139 23.072C49.8403 23.1573 49.5203 23.2213 49.179 23.264C48.8803 23.264 48.5603 23.264 48.219 23.264C48.1763 21.8133 47.9843 20.6613 47.643 19.808C47.3017 18.912 46.8323 18.272 46.235 17.888C45.6377 17.4613 44.891 17.248 43.995 17.248C43.0137 17.248 42.139 17.632 41.371 18.4C40.6457 19.1253 39.9417 20.512 39.259 22.56C38.619 24.5653 37.915 27.488 37.147 31.328C36.2083 36.1493 35.4617 40.416 34.907 44.128C34.3523 47.7973 33.9043 50.5707 33.563 52.448C33.0083 55.8613 32.283 58.9973 31.387 61.856C30.491 64.7147 29.4457 67.1893 28.251 69.28C27.0563 71.3707 25.7123 72.992 24.219 74.144C22.7683 75.296 21.1683 75.872 19.419 75.872C18.4803 75.872 17.5203 75.6587 16.539 75.232C15.515 74.848 14.5763 74.2933 13.723 73.568C13.6803 72.8853 13.7017 72.2027 13.787 71.52C13.8723 70.88 14.0003 70.2827 14.171 69.728C15.1523 70.0267 16.2617 70.2613 17.499 70.432C18.6937 70.6453 19.9523 70.752 21.275 70.752C22.0003 70.752 22.619 70.624 23.131 70.368C23.6857 70.112 24.1763 69.5147 24.603 68.576C25.0297 67.68 25.4563 66.2507 25.883 64.288C26.3097 62.3253 26.779 59.6373 27.291 56.224C27.8457 52.6827 28.3577 48.9067 28.827 44.896C29.2963 40.8853 29.979 36.2347 30.875 30.944C31.3443 28.0853 32.0697 25.6107 33.051 23.52C34.0323 21.4293 35.2057 19.7013 36.571 18.336C37.9363 16.9707 39.4083 15.968 40.987 15.328C42.5657 14.6453 44.2083 14.304 45.915 14.304ZM26.523 31.328H31.643L31.131 34.272C30.3203 34.1867 29.4457 34.1013 28.507 34.016C27.5683 33.888 26.6723 33.824 25.819 33.824C25.819 33.3547 25.883 32.9067 26.011 32.48C26.139 32.0107 26.3097 31.6267 26.523 31.328ZM36.891 31.328H43.483C43.483 31.7547 43.4403 32.2027 43.355 32.672C43.3123 33.0987 43.2057 33.4827 43.035 33.824C41.7977 33.824 40.5817 33.888 39.387 34.016C38.235 34.1013 37.2323 34.208 36.379 34.336L36.891 31.328ZM53.2075 60.576C50.6475 60.576 48.5568 59.9147 46.9355 58.592C45.3142 57.2267 44.2262 55.392 43.6715 53.088C43.1168 50.784 43.1168 48.1813 43.6715 45.28C44.2688 42.2507 45.3142 39.6053 46.8075 37.344C48.3008 35.0827 50.1355 33.312 52.3115 32.032C54.4875 30.752 56.8342 30.112 59.3515 30.112C61.8688 30.112 63.9168 30.752 65.4955 32.032C67.1168 33.2693 68.2262 34.9973 68.8235 37.216C69.4208 39.392 69.4635 41.9093 68.9515 44.768C68.4395 47.7973 67.4155 50.5067 65.8795 52.896C64.3862 55.2853 62.5515 57.1627 60.3755 58.528C58.1995 59.8933 55.8102 60.576 53.2075 60.576ZM54.0395 57.504C55.3195 57.504 56.5142 56.9707 57.6235 55.904C58.7755 54.8373 59.7782 53.408 60.6315 51.616C61.5275 49.7813 62.1888 47.712 62.6155 45.408C63.2982 41.8667 63.2555 38.944 62.4875 36.64C61.7195 34.336 60.3542 33.184 58.3915 33.184C56.5568 33.184 54.8715 34.2507 53.3355 36.384C51.7995 38.4747 50.6902 41.2267 50.0075 44.64C49.5382 47.1147 49.3888 49.3333 49.5595 51.296C49.7302 53.216 50.1995 54.7307 50.9675 55.84C51.7355 56.9493 52.7595 57.504 54.0395 57.504ZM77.4685 60.576C75.9752 60.576 74.8658 60.1493 74.1405 59.296C73.4152 58.4 73.0738 57.0987 73.1165 55.392C73.1165 54.752 73.1378 54.0907 73.1805 53.408C73.2658 52.6827 73.3938 51.7227 73.5645 50.528C73.7778 49.2907 74.0765 47.6693 74.4605 45.664C74.8445 43.616 75.3565 40.992 75.9965 37.792C76.6365 34.592 77.4258 30.6027 78.3645 25.824C78.7485 23.8613 78.9405 22.4533 78.9405 21.6C78.9405 20.704 78.6418 20.1493 78.0445 19.936C77.4472 19.7227 76.4658 19.616 75.1005 19.616C75.1005 19.1467 75.1218 18.6987 75.1645 18.272C75.2072 17.8453 75.3138 17.4827 75.4845 17.184C76.1672 17.0987 77.0632 16.928 78.1725 16.672C79.3245 16.3733 80.4552 16.032 81.5645 15.648C82.6738 15.2213 83.5272 14.8587 84.1245 14.56C84.8072 14.7733 85.2552 15.2213 85.4685 15.904C85.6818 16.5867 85.6818 17.504 85.4685 18.656C84.6152 23.4773 83.7405 28.1493 82.8445 32.672C81.9912 37.152 81.1378 41.4827 80.2845 45.664C79.6872 48.6933 79.3245 50.9547 79.1965 52.448C79.0685 53.9413 79.1112 54.9227 79.3245 55.392C79.5378 55.8613 79.8578 56.096 80.2845 56.096C80.7112 56.096 81.1805 55.968 81.6925 55.712C82.2472 55.4133 82.8658 54.9227 83.5485 54.24C83.8898 54.5387 84.1458 54.8587 84.3165 55.2C84.4872 55.4987 84.6152 55.8187 84.7005 56.16C83.6765 57.3547 82.5032 58.4 81.1805 59.296C79.9005 60.1493 78.6632 60.576 77.4685 60.576ZM93.2125 60.576C91.8045 60.576 90.7592 60.192 90.0765 59.424C89.3938 58.656 89.0312 57.5893 88.9885 56.224C88.9458 54.816 89.1805 53.1947 89.6925 51.36L92.3165 42.144C92.9565 39.968 93.3192 38.3893 93.4045 37.408C93.5325 36.4267 93.2978 35.808 92.7005 35.552C92.1458 35.296 91.1645 35.168 89.7565 35.168C89.7138 34.6987 89.7138 34.272 89.7565 33.888C89.8418 33.4613 89.9698 33.0773 90.1405 32.736C90.8232 32.6507 91.6338 32.4587 92.5725 32.16C93.5538 31.8613 94.4925 31.52 95.3885 31.136C96.2845 30.752 96.9885 30.4107 97.5005 30.112C98.8232 30.6667 99.6125 31.6053 99.8685 32.928C100.167 34.208 99.9538 36.1707 99.2285 38.816L95.7085 51.168C95.1112 53.2587 94.8552 54.6027 94.9405 55.2C95.0685 55.7973 95.4312 56.096 96.0285 56.096C96.4552 56.096 96.9458 55.9467 97.5005 55.648C98.0978 55.3493 98.7165 54.88 99.3565 54.24C99.6978 54.4533 99.9538 54.7307 100.125 55.072C100.338 55.4133 100.466 55.8187 100.509 56.288C99.2712 57.6107 98.0338 58.656 96.7965 59.424C95.6018 60.192 94.4072 60.576 93.2125 60.576ZM98.7805 23.072C97.7565 23.072 96.9885 22.7307 96.4765 22.048C96.0072 21.3227 95.8792 20.4053 96.0925 19.296C96.3485 18.1013 96.8605 17.1627 97.6285 16.48C98.3965 15.7547 99.2712 15.392 100.253 15.392C101.319 15.392 102.109 15.7547 102.621 16.48C103.133 17.1627 103.261 18.1013 103.005 19.296C102.791 20.4053 102.301 21.3227 101.533 22.048C100.765 22.7307 99.8472 23.072 98.7805 23.072ZM114.145 60.576C111.585 60.576 109.494 59.9147 107.873 58.592C106.252 57.2267 105.164 55.392 104.609 53.088C104.054 50.784 104.054 48.1813 104.609 45.28C105.206 42.2507 106.252 39.6053 107.745 37.344C109.238 35.0827 111.073 33.312 113.249 32.032C115.425 30.752 117.772 30.112 120.289 30.112C122.806 30.112 124.854 30.752 126.433 32.032C128.054 33.2693 129.164 34.9973 129.761 37.216C130.358 39.392 130.401 41.9093 129.889 44.768C129.377 47.7973 128.353 50.5067 126.817 52.896C125.324 55.2853 123.489 57.1627 121.313 58.528C119.137 59.8933 116.748 60.576 114.145 60.576ZM114.977 57.504C116.257 57.504 117.452 56.9707 118.561 55.904C119.713 54.8373 120.716 53.408 121.569 51.616C122.465 49.7813 123.126 47.712 123.553 45.408C124.236 41.8667 124.193 38.944 123.425 36.64C122.657 34.336 121.292 33.184 119.329 33.184C117.494 33.184 115.809 34.2507 114.273 36.384C112.737 38.4747 111.628 41.2267 110.945 44.64C110.476 47.1147 110.326 49.3333 110.497 51.296C110.668 53.216 111.137 54.7307 111.905 55.84C112.673 56.9493 113.697 57.504 114.977 57.504Z" fill="#6F1E51"/>
</svg>
